<svg width="36" height="36" viewBox="0 0 36 36" fill="none" xmlns="http://www.w3.org/2000/svg">
<path d="M12.135 17.445H5.1C5.22 10.44 6.6 9.28496 10.905 6.73496C11.4 6.43496 11.565 5.80496 11.265 5.29496C10.98 4.79996 10.335 4.63496 9.84 4.93496C4.77 7.93496 3 9.76496 3 18.48V26.565C3 29.13 5.085 31.2 7.635 31.2H12.135C14.775 31.2 16.77 29.205 16.77 26.565V22.065C16.77 19.44 14.775 17.445 12.135 17.445Z" fill="#344054"/>
<path d="M28.3651 17.445H21.3301C21.4501 10.44 22.8301 9.28496 27.1351 6.73496C27.6301 6.43496 27.7951 5.80496 27.4951 5.29496C27.1951 4.79996 26.5651 4.63496 26.0551 4.93496C20.9851 7.93496 19.2151 9.76496 19.2151 18.495V26.58C19.2151 29.145 21.3001 31.215 23.8501 31.215H28.3501C30.9901 31.215 32.9851 29.22 32.9851 26.58V22.08C33.0001 19.44 31.0051 17.445 28.3651 17.445Z" fill="#344054"/>
</svg>
