<svg width="47" height="46" viewBox="0 0 47 46" fill="none" xmlns="http://www.w3.org/2000/svg">
<rect x="0.745605" width="46" height="46" rx="23" fill="#FD853A"/>
<path d="M35.94 26.5953C34.8473 27.7882 33.5058 28.526 31.8827 28.5885C28.8178 28.7063 26.4453 26.9061 26.1515 24.6538C25.5668 20.1703 28.486 17.4112 31.6831 17.4112C33.3099 17.4112 34.5209 18.0328 35.596 19.0293L38.4009 15.8705C36.8788 14.3661 34.5378 13 31.6831 13C28.9191 13 26.4318 13.914 24.5456 15.6215V13.4076H10.6456V17.6873H19.4397V24.4952C19.4397 27.5861 18.2626 28.5885 15.9718 28.5885C14.484 28.5885 12.9615 27.7186 11.6732 26.1089L8.74561 29.2749C10.7087 32.0211 13.6434 33 16.141 33C20.0064 33 22.3094 31.5884 23.5007 29.4611C25.4397 31.801 28.282 33 31.357 33C34.388 33 36.908 31.8625 38.7456 29.6852L35.94 26.5953Z" fill="white"/>
</svg>
